<svg viewBox="0 0 1734.12 1500" xmlns:xlink="http://www.w3.org/1999/xlink" xmlns="http://www.w3.org/2000/svg" id="_1404"><defs><style>.cls-1{fill:#a0b3f8;}.cls-1,.cls-6{opacity:0.3;isolation:isolate;}.cls-2{fill:url(#未命名的渐变_23);}.cls-3{fill:url(#未命名的渐变_49);}.cls-4{fill:url(#未命名的渐变_23-2);}.cls-5{fill:url(#未命名的渐变_49-2);}.cls-6{fill:#c9cfe5;}.cls-7{fill:url(#未命名的渐变_17);}.cls-8{fill:#fafbfd;}.cls-9{fill:#d3dcf4;}.cls-10{stroke:#5d83ff;stroke-width:18px;fill:url(#未命名的渐变_49-3);}.cls-10,.cls-12{stroke-miterlimit:10;}.cls-11{fill:#5d83ff;}.cls-12{fill:none;stroke:#d3dcf4;stroke-width:20px;}.cls-13{fill:url(#未命名的渐变_49-4);}.cls-14{fill:#e3e7ff;}.cls-15{fill:url(#未命名的渐变_23-3);}.cls-16{fill:url(#未命名的渐变_49-5);}.cls-17{fill:#3a3a77;}.cls-18{fill:#fe9f39;}</style><linearGradient gradientUnits="userSpaceOnUse" gradientTransform="matrix(30.05, 0, 0, -53.6, -94352.99, 205254.23)" y2="3810.17" x2="3148.32" y1="3810.17" x1="3145.76" id="未命名的渐变_23"><stop stop-color="#548fff" offset="0"></stop><stop stop-color="#949fff" offset="1"></stop></linearGradient><linearGradient gradientUnits="userSpaceOnUse" y2="951.82" x2="242.79" y1="951.82" x1="165.07" id="未命名的渐变_49"><stop stop-color="#ebf4ff" offset="0"></stop><stop stop-color="#ebebff" offset="1"></stop></linearGradient><linearGradient xlink:href="#未命名的渐变_23" gradientTransform="matrix(61.2, 0, 0, -167.97, -196477.77, 637559.72)" y2="3792.92" x2="3228.99" y1="3792.92" x1="3226.42" id="未命名的渐变_23-2"></linearGradient><linearGradient xlink:href="#未命名的渐变_49" y2="252.98" x2="1145.84" y1="252.98" x1="987.52" id="未命名的渐变_49-2"></linearGradient><linearGradient gradientUnits="userSpaceOnUse" gradientTransform="matrix(30, 0, 0, -141.35, -94261.5, 536875.07)" y2="3790.64" x2="3186.05" y1="3790.64" x1="3183.46" id="未命名的渐变_17"><stop stop-color="#eaeff5" offset="0"></stop><stop stop-color="#dee1f0" offset="0.99"></stop></linearGradient><linearGradient xlink:href="#未命名的渐变_49" y2="1257.5" x2="823.62" y1="371.5" x1="823.62" id="未命名的渐变_49-3"></linearGradient><linearGradient xlink:href="#未命名的渐变_49" y2="381.46" x2="1502.78" y1="381.46" x1="1284.44" id="未命名的渐变_49-4"></linearGradient><linearGradient xlink:href="#未命名的渐变_23" gradientTransform="matrix(62.22, 0, 0, -75.14, -199811.53, 286724.88)" y2="3799.92" x2="3234.86" y1="3799.92" x1="3232.3" id="未命名的渐变_23-3"></linearGradient><linearGradient xlink:href="#未命名的渐变_49" y2="1091.88" x2="1453.56" y1="1091.88" x1="1292.6" id="未命名的渐变_49-5"></linearGradient></defs><title>icon</title><g id="建筑3"><path d="M199.58,1105l-32.85-18.91c-2.47-1.42-2.15-3.93.7-5.57l31.25-18c2.86-1.65,7.24-1.83,9.65-.4l32.84,18.92c2.48,1.43,2.17,3.92-.69,5.57l-31.24,18C206.37,1106.27,202.06,1106.45,199.58,1105Z" class="cls-1" id="路径"></path><path d="M242.79,1068V951.69H165.07v116.38a2.86,2.86,0,0,0,1.66,2.4l32.85,18.92c2.48,1.43,6.79,1.2,9.64-.4l31.19-18a4.14,4.14,0,0,0,2.35-2.9h0Z" class="cls-2" id="路径-2"></path><path d="M199.58,973.24l-32.85-18.92c-2.47-1.42-2.15-3.91.7-5.55l31.19-18c2.86-1.65,7.24-1.83,9.65-.41l32.84,18.92c2.48,1.43,2.17,3.92-.69,5.57l-31.19,18C206.37,974.48,202.06,974.66,199.58,973.24Z" class="cls-3" id="路径-3"></path></g><g id="建筑2"><path d="M1057.82,717.11l-66.89-38.48c-5-2.91-4.41-8,1.41-11.34l63.53-36.6c5.82-3.35,14.63-3.72,19.68-.82l66.88,38.55c5,2.9,4.41,8-1.41,11.33l-63.53,36.53C1071.67,719.65,1062.86,720,1057.82,717.11Z" class="cls-1" id="路径-4"></path><path d="M1145.81,641.72a3.11,3.11,0,0,0,0-.61V252.72H987.53V641.84c0,1.84,1.12,3.61,3.4,4.91l66.89,38.48c5,2.91,13.85,2.55,19.67-.81l63.53-36.6c2.94-1.7,4.55-3.83,4.82-5.91Z" class="cls-4" id="路径-5"></path><path d="M1057.82,296.59l-66.89-38.48c-5-2.9-4.41-8,1.41-11.33l63.53-36.61c5.82-3.35,14.63-3.71,19.68-.8l66.88,38.48c5,2.9,4.41,8-1.41,11.33l-63.53,36.61C1071.67,299.14,1062.86,299.5,1057.82,296.59Z" class="cls-5" id="路径-6"></path></g><g id="建筑-灰"><path d="M1276.82,1259.13,1244,1240.22c-2.41-1.43-2.16-3.91.69-5.56l31.15-18c2.85-1.64,7.22-1.82,9.63-.39l32.79,18.9c2.48,1.43,2.16,3.92-.69,5.57l-31.14,18C1283.61,1260.33,1279.3,1260.55,1276.82,1259.13Z" class="cls-6" id="路径-7"></path><path d="M1320,1222.14a1.5,1.5,0,0,0,0-.3v-343h-77.59v343.37a2.87,2.87,0,0,0,1.66,2.41l32.79,18.9c2.48,1.42,6.79,1.21,9.63-.4l31.14-18a4.2,4.2,0,0,0,2.35-2.9Z" class="cls-7" id="路径-8"></path><path d="M1276.82,900.35,1244,881.44c-2.41-1.43-2.16-3.92.69-5.56l31.15-18c2.85-1.65,7.22-1.83,9.63-.41q2.4,1.43,32.79,18.92c2.48,1.42,2.16,3.91-.69,5.55l-31.14,18C1283.61,901.6,1279.3,901.76,1276.82,900.35Z" class="cls-8" id="路径-9"></path></g><path d="M153.58,596.17,263.43,808.41,373.2,1020.48l62.15,120.09c5.33,10.29,20.86,1.19,15.54-9.09L341.21,919.57,231.37,707.35,169.12,587.08c-5.32-10.29-20.86-1.2-15.54,9.09Z" class="cls-9"></path><path d="M835.7,247.62l59.12,114.23c5.33,10.29,20.87,1.2,15.55-9.08L851.24,238.53c-5.32-10.29-20.86-1.19-15.54,9.09Z" class="cls-9"></path><path d="M609.91,365.08l181.51-93.95L843.8,244l-9.09-15.54L829.92,231c-10.29,5.33-1.2,20.86,9.09,15.54L843.8,244c10.29-5.33,1.2-20.86-9.09-15.54L653,322.54l-52.15,27c-10.29,5.32-1.2,20.86,9.09,15.54Z" class="cls-9"></path><path d="M605.36,366.31c11.59,0,11.61-18,0-18s-11.6,18,0,18Z" class="cls-9"></path><path d="M165.83,594.92Q266.93,542.6,368,490.17q35.83-18.6,71.68-37.15c10.29-5.33,1.2-20.87-9.08-15.55Q314.23,497.71,197.93,558.06l-41.18,21.32c-10.3,5.33-1.2,20.87,9.08,15.54Z" class="cls-9"></path><g id="图层_5"><rect ry="12" rx="12" height="886" width="758" y="371.5" x="444.62" class="cls-10"></rect></g><path d="M949.12,796h54c17.38,0,17.4-27,0-27H955.89v27h152.23c17.37,0,17.4-27,0-27h-11.3c-17.38,0-17.41,27,0,27h11.3c17.37,0,17.4-27,0-27H955.89c-17.37,0-17.4,27,0,27h47.28c17.38,0,17.4-27,0-27h-54c-17.37,0-17.4,27,0,27Z" class="cls-11"></path><path d="M790.12,796h61.67c17.37,0,17.4-27,0-27H829.28c-17.38,0-17.41,27,0,27h73.28c17.38,0,17.4-27,0-27H894.5c-17.37,0-17.4,27,0,27h11.62c17.37,0,17.4-27,0-27h-11.3c-17.38,0-17.41,27,0,27h11.3c17.37,0,17.4-27,0-27H894.5c-17.37,0-17.4,27,0,27h8.06c17.38,0,17.4-27,0-27H829.28c-17.38,0-17.41,27,0,27h22.51c17.37,0,17.4-27,0-27H790.12c-17.37,0-17.4,27,0,27Z" class="cls-11"></path><path d="M535.12,894.5h573c11.58,0,11.6-18,0-18h-11.3c-11.59,0-11.6,18,0,18h11.3c11.58,0,11.6-18,0-18h-573c-11.58,0-11.6,18,0,18Z" class="cls-11"></path><path d="M535.12,997.5h573c11.58,0,11.6-18,0-18h-11.3c-11.59,0-11.6,18,0,18h11.3c11.58,0,11.6-18,0-18h-573c-11.58,0-11.6,18,0,18Z" class="cls-11"></path><path d="M535.12,1100.5h573c11.58,0,11.6-18,0-18h-11.3c-11.59,0-11.6,18,0,18h11.3c11.58,0,11.6-18,0-18h-573c-11.58,0-11.6,18,0,18Z" class="cls-11"></path><rect ry="22.5" rx="22.5" height="45" width="1323" y="1258" x="165.12" class="cls-12"></rect><rect ry="0.5" rx="0.5" height="1" width="1" y="1298" x="821.12" class="cls-11"></rect><path d="M1286.48,494.25c29.12-7.79,55.24-24.5,77.88-44,18.36-15.84,36.37-34.54,48.47-55.74a188.74,188.74,0,0,0,18.58-45.75c3.81-14.66,6.69-32,.82-46.56-6.39-15.83-22.23-21.37-38.35-19.6-19,2.09-35.78,11.18-47.09,26.72-8.86,12.17-13.59,29.12-7,43.36,7.84,16.9,28.49,20.27,45.15,18.51,23.39-2.47,45.43-14.15,64.5-27.37,20.26-14,39.8-31.41,52.58-52.74a88.57,88.57,0,0,0,6.82-14.19c3.2-8.43-10.33-12.08-13.5-3.72-7.2,19-23.14,34.71-38.41,47.49-16.63,13.92-36,26.3-56.73,33a73.55,73.55,0,0,1-27.8,3.83c-6.21-.44-12.74-2.47-16.46-6a17,17,0,0,1-5.29-12.45,33.16,33.16,0,0,1,3.94-15.78,50.15,50.15,0,0,1,32.5-25.4c7.29-1.79,15.06-2.41,21.93-.35a6.85,6.85,0,0,1,2.36.95c.64.33,3.18,2,2.55,1.52,2.62,2.11,3,2.82,4.61,5.78,2.14,4,2.89,10.06,2.86,15.6a88.33,88.33,0,0,1-2.73,20.5,175,175,0,0,1-15.37,40.85c-10.54,20.12-26.55,37.41-43.21,52.62-22.11,20.19-48.18,37.65-77.36,45.46-8.69,2.33-5,15.84,3.72,13.5Z" class="cls-13"></path><path d="M1604.25,133.13c-15.94,13.67-30.33,29-45.51,43.45-15.54,14.81-31.76,28.91-46.49,44.55-4.41,4.68,2.65,11.77,7.07,7.07,14.73-15.64,31-29.74,46.49-44.55,15.18-14.48,29.58-29.78,45.51-43.45,4.9-4.19-2.21-11.24-7.07-7.07Z" class="cls-9"></path><path d="M1604.3,134.67c-10.15,37.47-22.58,74.26-33.5,111.5-1.81,6.19,7.83,8.83,9.64,2.66,10.92-37.24,23.35-74,33.5-111.5,1.69-6.22-8-8.87-9.64-2.66Z" class="cls-9"></path><path d="M1513.79,230.15c19.78,6.66,38.83,15.23,58.5,22.17,6.08,2.15,8.7-7.51,2.66-9.64-19.67-6.94-38.72-15.51-58.5-22.17-6.11-2-8.74,7.6-2.66,9.64Z" class="cls-9"></path><path d="M1487.14,207.82c40.59-22.45,80.52-46.21,122-67,5.76-2.89.7-11.52-5-8.64-41.48,20.8-81.42,44.55-122,67-5.64,3.12-.6,11.76,5,8.64Z" class="cls-9"></path><path d="M1482.1,207.82c10.57,7.79,21.17,15.56,32,23,5.32,3.65,10.32-5,5-8.64-10.83-7.43-21.42-15.2-32-23-5.18-3.82-10.17,4.85-5,8.64Z" class="cls-9"></path><path d="M1503.62,225.5c-.41,5.31-.95,10.67-1,16-.06,6.44,9.94,6.44,10,0,.05-5.33.59-10.69,1-16,.49-6.42-9.51-6.39-10,0Z" class="cls-9"></path><path d="M1511.16,246c5.53-4.43,10.72-9.28,16-14,4.8-4.31-2.29-11.36-7.07-7.08-5.28,4.73-10.47,9.57-16,14-2.13,1.71-1.75,5.3,0,7.08,2.06,2.1,5,1.67,7.07,0Z" class="cls-9"></path><path d="M1101.12,1345H1176c23.52,0,47.64-1.68,71,.85,7.38.79,16.08,1.45,22.83,5.09,6.34,3.41,5.42,8.84,2.92,14.53-3.58,8.14-7.4,15.67-6.78,24.85.67,9.8,8.73,13.71,17.5,15.56,26,5.49,53.36,1.92,79.63,1.12,11.56-.35,11.61-18.36,0-18-23.81.73-48.11,3.61-71.83.08-.79-.12-10.24-3-10.16-3.08-.44.39,3.84,3.5,2.86,4.32a14,14,0,0,0-.07-2.28,17,17,0,0,1,1-5.67c2.52-7.76,7.34-14.38,7.92-22.77,1.48-21.35-20.45-28.37-37.42-30.68-23.38-3.17-47.05-1.92-70.59-1.92h-83.71c-11.58,0-11.6,18,0,18Z" class="cls-9"></path><path d="M353.12,1353h260c11.58,0,11.6-18,0-18h-260c-11.58,0-11.6,18,0,18Z" class="cls-9"></path><g id="cloud"><path d="M325.24,399a28.37,28.37,0,0,0-5.13.26c-.78-6.62-6.62-11-16.21-11.44-12-.46-26.48,5.64-35.82,14.59-10.32.62-22,4.58-25.86,14.21-2.1,9.37,3,14.91,12.9,15.37l19.8,1.47,27.69,1.18c16.51,1.35,30-4.14,37.51-14.65C346.34,410.16,337,399.51,325.24,399Z" class="cls-14" id="路径-10"></path></g><g id="建筑"><path d="M1364.06,1310.41l-68-39.18c-5.14-2.94-4.5-8.1,1.43-11.52l64.59-37.21c5.92-3.41,14.87-3.77,20-.83l68,39.18c5.12,3,4.48,8.11-1.44,11.53l-64.6,37.2C1378.15,1313,1369.19,1313.36,1364.06,1310.41Z" class="cls-1" id="路径-11"></path><path d="M1453.54,1239.78c0-.2,0-.41,0-.62V1091.69H1292.61V1239.9c0,1.87,1.13,3.61,3.46,5l68,39.16c5.12,3,14.08,2.59,20-.82l64.61-37.21c3-1.72,4.62-3.9,4.82-6h0Z" class="cls-15" id="路径-12"></path><path d="M1364.06,1136.3l-68-39.22c-5.14-3-4.5-8.12,1.43-11.52l64.59-37.28c5.92-3.4,14.88-3.78,20-.82l68,39.17c5.12,3,4.48,8.12-1.43,11.52l-64.61,37.28C1378.15,1138.88,1369.19,1139.26,1364.06,1136.3Z" class="cls-16" id="路径-13"></path></g><g id="图层_4"><path d="M483.14,776.3c-37.63,14.23-72.39,36.06-104.42,60.18-16.7,12.57-33.21,25.17-48.33,39.63-14.18,13.55-29.22,27.38-41,43.1-5.64,7.52-9.84,16.2-13.89,24.67-6.28,13.1-3.26,27.77,2.92,40.3,8.53,17.32,30,24.16,47.56,27.82,20.68,4.31,41,3.91,61.87,1.33,22-2.72,43.83-6.44,65.62-10.31,45.35-8.08,89.64-20.65,134.64-30.32,11.52-2.48,19.31-16.58,15.72-27.68-3.93-12.14-15.34-18.37-27.68-15.72-37.19,8-73.85,18.25-111.13,25.84-18.61,3.78-37.33,6.91-56.07,10q-6.75,1.11-13.52,2.14c-2.26.33-4.51.71-6.78,1,4.84-.56-2.2.26-3.71.44a210.86,210.86,0,0,1-28,1.84c-4.21-.07-8.38-.39-12.56-.77-.5,0-3.53-.45-.59,0,3.14.43-.71-.14-1.46-.27q-3.56-.6-7.06-1.41a113.41,113.41,0,0,1-12-3.46c-1.83-.64-3.63-1.52-5.48-2.08,6,1.83,1.46.64-.24-.28s-5.22-4,.37.65c-.37-.31-.69-.69-1-1-1.75-1.84,2.68,4.54,1.69,2.12a10.83,10.83,0,0,0-.83-1.43c-1.07-1.69.18-2.28.77,2a39.39,39.39,0,0,0-1.9-6c-.47-1.44-.18-4.06.21,1.59-.11-1.57.76-4.21-.8,1.66-1.83,6.88.75.12,1.74-1.81,2-3.93,3.8-8.09,6.12-11.86.15-.24,2.95-4.89,3.32-4.8-.07,0-2.8,3.25-.44.62.75-.84,1.46-1.7,2.2-2.53,2.82-3.14,5.83-6.1,8.82-9.07,6.19-6.12,12.19-12.41,18.39-18.52,6.61-6.53,13.37-12.91,20.41-19,3.3-2.84,6.66-5.59,10.08-8.29l2.2-1.72c2.63-2.08-2.81,2.11-.13.1,2-1.49,4-3,6-4.5,16.17-12.17,32.43-23.93,49.77-34.4,8.61-5.2,17.34-10.24,26.23-15,4.27-2.26,8.59-4.44,13-6.5,1.09-.51,2.19-1,3.29-1.51.56-.26,5.12-2.48,2.31-1-2.42,1.24.25-.1.68-.27,1.71-.67,3.47-1.23,5.14-2,29.61-13.52,34-33.7,26-38.7-9.55-6-26.19-9.15-38-4.7Z" class="cls-17"></path><path d="M493.85,787.91c-8.77,19.59-14.53,40.72-21.21,61.1-6.58,20-13.48,40-19.62,60.15-12.3,40.37-23.82,80.79-33.06,122-5.23,23.3-10.43,46.61-17.13,69.54-2.93,10,3.55,22.23,14,24.61,10.71,2.43,21.47-3.22,24.61-14,11.67-40,18.68-81.14,29.58-121.33s23.2-80,36.56-119.35c3.72-11,7.21-22,10.86-33,1.8-5.43,3.72-10.82,5.5-16.25.84-2.61,1.65-5.22,2.53-7.81.38-1.15.78-2.3,1.19-3.44.29-.79,2.37-5.63.76-2,4.26-9.52,3.08-21.94-7.18-27.36-8.72-4.61-22.8-3-27.36,7.18Z" class="cls-17"></path><path d="M1088,769.73c-18.12,9.75-34.51,22.12-50.38,35.12-3.73,3.06-7.52,6-11.32,9-2.57,2,2.07-1.57-.53.41-1,.77-2,1.56-3.07,2.34l-6.91,5.26c-9,6.8-17.92,13.6-26.68,20.66-15.42,12.42-30.28,25.53-44.69,39.11s-28.11,28-38.94,44.4a80.34,80.34,0,0,0-11.12,26.3c-2.89,12.84.49,24.15,10.66,32.63,5.25,4.37,10.35,7.69,17,9.39,1.15.3,2.31.51,3.48.71,1.73.3,8.88,1.22,5.38.74l2.06.29c2.72.38,5.45.76,8.17,1.11a158.74,158.74,0,0,0,30.67.68c42-2.77,82.54-15.14,122.73-26.86,21.76-6.35,43-14.09,64.48-21.36,22.13-7.48,44.45-14.36,66.4-22.39,9.79-3.59,17.48-13.74,14-24.61-3.12-9.61-14.09-17.82-24.61-14-18.33,6.72-36.91,12.72-55.46,18.78-17.83,5.83-35.42,12.33-53.25,18.15-18.11,5.93-36.51,10.9-54.86,16-18.19,5.1-36.39,10-55,13.36-2.22.4-4.45.77-6.68,1.13-4,.65-1.3.21-.43.09-1.28.17-2.56.32-3.84.46-4.79.54-9.6.93-14.42,1.24a165.57,165.57,0,0,1-27.81-.5c3.57.37.29,0-.38-.05l-3.84-.57c.56.08-8.06-1.31-4.42-.59,2.54.51-1.12-.3-1.7-.45-.19,0-2.52-.79-2.56-.74.28-.41,3,1.07,3.19,1.63-.12-.41-1.53-1.29-1.86-1.59-2.16-1.94-1.49-1.79-.14.33a11.93,11.93,0,0,1,1.78,5.78c0,.15-1.09,4.27-.29,2.38A38.59,38.59,0,0,0,934,959c.61-2.16,1.3-4.26,2.11-6.36-1.53,4,.76-1.15,1.45-2.36a100.17,100.17,0,0,1,6.17-9.23c.47-.65,2.33-2.9-.08.09l1.64-2.07q2.28-2.85,4.66-5.62c5.88-6.87,12.19-13.37,18.71-19.64q20-19.24,41.44-37,6.18-5.12,12.47-10.08l2.22-1.74c4.74-3.73-1.59,1.18,1.22-1l6.91-5.26c9.29-7.06,18.61-14.09,27.74-21.37,3.92-3.12,7.77-6.34,11.64-9.52.94-.78,1.89-1.56,2.85-2.32.54-.44,3.9-2.85,1-.83,2-1.41,4-2.82,6-4.19,8.49-5.7,17-11.4,26-16.25,9.23-5,12.89-18.51,7.18-27.36-6-9.37-17.5-12.49-27.36-7.18Z" class="cls-17"></path><path d="M1059.83,801.32c-.47-3.46,0-.16,0,.46.13,1.29.28,2.57.41,3.86.26,2.56.47,5.13.67,7.7.41,5.48.7,11,1,16.44.58,10.63,1,21.26,1,31.91a308.7,308.7,0,0,1-1.7,31.74c-.56,5.19-1.23,10.37-1.9,15.55l-.51,3.89c-.3,2.37,0,0,.06-.45-.43,3.24-.88,6.49-1.34,9.73-3,21.24-5.88,42.51-10.35,63.5q-6.59,31-13.9,61.87c-5.58,23.32-12.69,46.19-19.49,69.16-3,10,3.58,22.24,14,24.61,10.74,2.44,21.43-3.23,24.61-14,6.25-21.14,12.84-42.18,18.12-63.58,5.14-20.81,9.67-41.8,14.24-62.74,4.65-21.27,7.75-42.77,10.82-64.32,3.27-23,6.82-46,7.3-69.24a488.91,488.91,0,0,0-4.48-76.76c-1.45-10.4-15.26-13-24.61-10-11.41,3.7-15.51,9.46-14,20.61Z" class="cls-17"></path><path d="M731.89,845.59c1-1.39,2-2.76,3-4.15,3.14-4.5-2.6,2.95.86-1.13,2-2.37,4-4.74,6.14-7s4.11-4.14,6.31-6.05a19.16,19.16,0,0,1,3.22-2.69c-4.83,2.5.3-.1,1.42-.83q2.72-1.8,5.59-3.33c1.12-.6,2.28-1.13,3.41-1.7,4-2-4.35,1.44-.15.11,2.37-.75,4.68-1.56,7.1-2.13,1.2-.28,2.41-.48,3.61-.72q3.25-.51-1.65.21c.82-.09,1.65-.16,2.47-.22a65.41,65.41,0,0,1,7.54-.06c1.06.05,2.13.17,3.19.23,4.06.26-.53.67-.78-.14.13.45,7.1,1.46,7.92,1.68a95.35,95.35,0,0,1,9.5,3l1.38.52q3.17,1.28-.78-.34c.88,0,2.9,1.41,3.68,1.84s6,4.38,6.57,4.17c-1.2.42-3.33-3-.69-.4.71.71,1.49,1.36,2.2,2.08s1.59,1.75,2.4,2.61c2.36,2.52-2.61-3.93.38.61,1.27,2,2.31,4,3.38,6,1.93,3.72-1.52-4.51-.23-.51.35,1.11.77,2.2,1.1,3.32a60.64,60.64,0,0,1,1.63,6.9c.13.72.18,1.65.39,2.37-1.68-5.73-.22-1.17-.1.74a96,96,0,0,1-.31,15.16l-.13,1.29q-.39,3.3.23-1.43c-.47,1-.42,2.84-.6,3.91q-.74,4.27-1.73,8.51c-2.77,11.92-7.12,23.36-11.3,34.84q-3.3,9.06-6.72,18.07-1.89,4.92-3.84,9.82-1,2.45-2,4.89c-.29.71-3.15,7.47-1.37,3.32a380.19,380.19,0,0,1-18.44,37.73c-3.44,6.06-7.1,12-11,17.77-1.63,2.4-3.35,4.74-5,7.12-3.32,4.73,2.79-3.13-.25.35-1.1,1.25-2.16,2.53-3.3,3.75-1.68,1.79-3.43,3.5-5.27,5.12-.71.63-2.3,1.53-2.77,2.33l2.16-1.65c-.63.47-1.27.94-1.92,1.4a92.87,92.87,0,0,1-12.11,7c-3.77,1.88,4.51-1.66.56-.22-1.06.39-2.12.81-3.19,1.18-2.13.72-4.29,1.36-6.48,1.9s-4.43.7-6.53,1.31c5.39-1.58,2.87-.35,1-.17-1.44.14-2.89.24-4.34.29-1.8.06-3.59.06-5.38,0-2.06-.08-8.92-1.57-2.08,0a133.36,133.36,0,0,1-13-3.36c-3.7-1.27,4.51,2.18,1,.44-.76-.37-1.53-.72-2.28-1.11q-2.46-1.27-4.79-2.79c-.82-.54-1.61-1.23-2.47-1.72,4.76,2.75,2.3,1.81.92.61a48.87,48.87,0,0,1-5-5c-1.4-1.62-1.54-3.5.6.85a28.58,28.58,0,0,0-1.73-2.55,51.22,51.22,0,0,1-2.56-4.57c-1-2-.56-3.79.29.84a28,28,0,0,0-1.11-3.1,63.41,63.41,0,0,1-1.84-7.55c-.32-1.65-.23-4.93.15,1.48-.06-1-.22-2-.31-3-.17-2.11-.27-4.23-.31-6.34a135.59,135.59,0,0,1,.49-13.82c.1-1.23.22-2.45.35-3.67.19-1.77,1.77-6.56.06-1,.86-2.83.93-6.17,1.46-9.09,1.08-5.93,2.38-11.81,3.85-17.65a351.93,351.93,0,0,1,12.1-38.32q1.89-5,3.92-10c.33-.81,2.19-5.67.35-.88.72-1.9,1.62-3.75,2.45-5.61q4-9,8.51-17.8a293.19,293.19,0,0,1,20.58-34.52c6-8.6,1.85-22.59-7.18-27.36-10.23-5.41-21-2-27.36,7.18-15.67,22.43-27.61,47.24-37.64,72.63a323.94,323.94,0,0,0-20.5,77.35c-2.84,21.78-2.39,45.77,9.71,64.93,13.22,21,35.48,31.93,59.63,34.18,23.27,2.16,47-6.07,65.32-20.2,11.4-8.8,19.89-20,27.76-32a311.51,311.51,0,0,0,22.19-40.57c7-15.11,13.18-30.59,19-46.18,4.91-13.13,10.14-26.29,13.88-39.81,7-25.29,8.93-52.79-2.38-77.09-12.28-26.35-41.21-38.91-68.65-41.9-27.7-3-54.1,9.85-72.67,29.86a172.08,172.08,0,0,0-15.17,19.27c-6,8.62-1.87,22.58,7.18,27.36,10.19,5.39,21,2,27.36-7.18Z" class="cls-17"></path><path d="M535.55,491.43c-15.35,15.92-19.83,44.08-6.62,62.62,13.78,19.34,40.39,22.47,62.17,18.65s40.68-17.62,44-40.51c3.06-21.41-7.64-44.54-27.73-53.8-24.65-11.36-52.35-5.48-71.78,13-9.34,8.9,4.82,23,14.14,14.14,6.87-6.54,15-11.29,24.52-12.76a42.06,42.06,0,0,1,20.09,1.82l1.88.64c.19.07,3.06,1.3,1.06.39,1.14.52,2.26,1.08,3.35,1.7a28.24,28.24,0,0,1,7.82,6.62,33.29,33.29,0,0,1,7.27,19.38c.48,15.07-8.93,24.41-22.49,28.34-13.84,4-32.39,4.37-44-4.74-5.56-4.39-8.3-12.55-8-20.27s3.58-16,8.47-21.12c8.94-9.27-5.19-23.43-14.14-14.14Z" class="cls-18"></path><path d="M691.57,491.87c-13.78,9.91-21,25.06-18.41,42,2.14,14.26,11.48,27.68,24.75,33.68,16.29,7.35,36.64,3.17,49.37-9.34,13.93-13.69,18.67-40,5.57-55.78-14.35-17.34-42.14-21.84-61.28-10.6-11.09,6.51-1,23.8,10.1,17.26a25.54,25.54,0,0,1,18.91-3c5.6,1.26,11.67,4.13,15.22,7.36a26.85,26.85,0,0,1,2.35,2.42c1,1.18-.74-1.23,0,0,.08.13.77,1.52.51.77a31.13,31.13,0,0,1,1.82,9.56,26,26,0,0,1-5.51,16c-3.78,4.7-9.3,7.24-14.87,8.57-4.47,1.06-7.58.85-12.23-.63-1.82-.58-.67-.2-.24,0-.57-.24-1.14-.52-1.69-.81-1.09-.6-2.14-1.24-3.18-1.92-.26-.17-1.49-1.14-.2-.1-.48-.39-1-.8-1.4-1.22-.89-.87-1.75-1.74-2.59-2.65-1.28-1.38-.46-.5-.19-.14-.37-.49-.73-1-1.07-1.52-.68-1-1.28-2.12-1.9-3.2-.23-.4-.42-.83-.62-1.25-.72-1.42.48,1.32-.11-.17a36.44,36.44,0,0,1-1.3-4c-.15-.6-.29-1.2-.42-1.81-.06-.24-.42-2.7-.27-1.43.06.5-.12-2.51-.11-3.32s.28-3.84,0-2a35.93,35.93,0,0,1,1.06-4.59c.12-.46.3-.91.46-1.35.34-1-.5.87.31-.71a33.92,33.92,0,0,1,2.24-3.81c.93-1.38-.81.91.27-.4.55-.67,1.14-1.31,1.75-1.93a22.94,22.94,0,0,1,3-2.69c4.38-3.14,6.5-8.7,3.59-13.68-2.53-4.32-9.28-6.76-13.69-3.58Z" class="cls-18"></path><path d="M816.57,481.87c-17.79,10.85-22.51,37.43-14.31,55.57,8.36,18.48,33.61,25.49,52.25,23.48,9.89-1.06,19.67-4.43,26-12.44,6.21-7.82,11-16.88,11.5-27,.87-16.68-11.38-30.3-25.68-37.07-15-7.1-34.44-10.54-49.8-2.51-11.41,6-1.31,23.23,10.1,17.26,2.42-1.26-1.28.17,1.47-.62,1-.27,1.92-.51,2.89-.76,2.76-.7-.72-.13,1.67-.26,1.54-.09,3.07-.18,4.62-.16,1.18,0,2.34.09,3.51.18-.05,0,2.85.31,1.35.12-1.27-.17.64.1.93.15a72.6,72.6,0,0,1,8.58,2.12c.54.18,4.41,1.63,2.88,1,1.14.48,2.27,1,3.37,1.6s2.43,1.31,3.61,2c.66.41,4,2.89,2.73,1.84.9.76,1.77,1.53,2.6,2.36.49.49,2.52,2.84,2,2.21s1.18,1.92,1.53,2.49a13.77,13.77,0,0,1,.76,1.48c-1-2,.06.19.2.71s.78,3.69.69,2.79c-.17-1.58,0,1.26,0,1.27,0,.59,0,1.18-.05,1.78-.08,1.93,0,.52,0,.09-.13.79-.31,1.58-.52,2.36a21.08,21.08,0,0,1-1.4,4,38.28,38.28,0,0,1-4.94,7.87,12.38,12.38,0,0,1-5.47,3.74c-11.22,3.93-28.66,1.33-37.07-7.11-2.26-2.27-2.71-3.78-3.71-7.51a31.41,31.41,0,0,1-.29-10.87,39.86,39.86,0,0,1,2.6-8.43c.42-.83,2.37-3.9,2-3.45,1.73-2.15,1.61-2,3.36-3,11-6.69.93-24-10.1-17.26Z" class="cls-18"></path><path d="M919.86,508.71c.06,14.05,2,28.28,3.09,42.26,1.4,17.42,2.8,34.84,4.41,52.24.5,5.38,4.24,10,10,10,5,0,10.51-4.59,10-10-1.61-17.4-3-34.82-4.41-52.24-1.13-14-3-28.21-3.09-42.26-.05-12.86-20.05-12.89-20,0Z" class="cls-18"></path><path d="M939.93,493.29c1-1.11,2-2.13,3.11-3.15.43-.41.9-.79,1.35-1.17-1.35,1.12-.18.14.11-.07a45.09,45.09,0,0,1,7.88-4.48c-1.69.75,1.32-.47,1.91-.67,1.32-.44,2.66-.83,4-1.16s2.74-.62,4.12-.86c2-.33.54-.07.12,0,.93-.1,1.87-.18,2.8-.24a51.24,51.24,0,0,1,8.4.21c-2-.21,1.77.32,2.38.45,1.66.36,3.26.84,4.89,1.34a29.59,29.59,0,0,1,11,7c3.41,3.55,5.66,8,6.92,14a34.45,34.45,0,0,1,.7,8.5c0,.79-.05,1.59-.14,2.38,0-.47.36-1.76-.1.11-.16.66-1.44,4.54-.73,2.87a24,24,0,0,1-9.21,10.93,41.06,41.06,0,0,1-16.17,6.63,16.25,16.25,0,0,1-3.63.53,51.4,51.4,0,0,1-5.82.13,27.91,27.91,0,0,1-9.24-1.6,27.34,27.34,0,0,1-14.31-10.51c-7.19-10.59-24.52-.59-17.27,10.1,10.45,15.41,28.12,23.36,46.64,21.88,16.83-1.35,33.81-8.88,43.53-23.16s7.92-35.1-1.1-49.35c-8.82-13.93-24-21.29-40.17-22.41-16.68-1.16-34.82,5-46.1,17.63-8.56,9.57,5.54,23.76,14.14,14.15Z" class="cls-18"></path><path d="M1109.69,494.43c-12.29-10.66-32.46-10.8-47.07-5.24-8.11,3.08-15.95,8.49-18.65,17.18-2.74,8.85.51,19,6.34,25.86,5.69,6.71,14.27,10,22.48,12.45,7.59,2.26,14.88,3.67,20.72,7.35a19.55,19.55,0,0,1,5.29,5.32c.29.47,1.17,2.79.36.44a5.4,5.4,0,0,1,.43,1.39l.17.68c-.16-1.53-.19-1.74-.1-.64a11.63,11.63,0,0,1,0,1.32c.26-1.58.29-1.83.09-.74a6.15,6.15,0,0,1-.34,1.24c-.79,1.57-.17-1.68-.05,0,0,.37-1.85,2.54.05.21a13,13,0,0,1-1.16,1.3l-1.31,1.24c-1.79,1.65,1.76-1.07-.36.25a44.78,44.78,0,0,1-4.17,2.33c2.14-1-.34.12-.71.24-1,.31-1.92.62-2.9.88-.71.19-1.43.34-2.14.51s-1.18.23-1.77.32c1.17-.13,1.16-.14,0,0a34.25,34.25,0,0,1-9.43-.24,39.88,39.88,0,0,1-6.41-1.88c.42.17,1.49.71-.26-.17-1.16-.59-2.28-1.24-3.39-1.93a24.82,24.82,0,0,1-7.09-7.64c-6.69-11-24-.93-17.27,10.1a46.21,46.21,0,0,0,43.85,21.76c14-1.3,30.38-8.19,34.19-23.19,4.62-18.23-13.5-31.17-28.4-36.08-3.79-1.24-7.66-2.23-11.49-3.34-2-.59-4.07-1.21-6.06-1.93-.64-.23-1.3-.47-1.93-.73,1.45.61-1.81-.95-2.11-1.12-3-1.68-3.61-1.94-5.14-5.08.78,1.6-.49-1.51-.5-1.53a15.74,15.74,0,0,1-.5-2.24c.22,1.76,0-.81.1-1-.87,3.42.28-2.74-.15.61a5.37,5.37,0,0,1,.77-1.32c-1.89,1.67.72-.63,1.07-1,1.91-1.76-1.62.9.71-.46.78-.46,1.55-.91,2.35-1.32,2.62-1.36-1.77.55,1.09-.48,1.24-.45,2.5-.84,3.77-1.17.82-.21,1.65-.39,2.48-.56.36-.08,3.62-.54,1.92-.35a50.3,50.3,0,0,1,6.72-.29c.84,0,1.69.06,2.53.11.67.05,1.33.11,2,.19-1-.14-1-.11.23.08a34.55,34.55,0,0,1,5.3,1.43c-2.13-.79.35.23.67.37s.91.52,1.35.81c-1-.82-1.07-.88-.25-.18,4.08,3.54,10.13,4,14.14,0,3.62-3.61,4.1-10.59,0-14.14Z" class="cls-18"></path></g><path d="M518,671.18C559.76,658,603.58,654.33,647,650.51c47.32-4.16,94.65-5.68,142.14-5.94,43.49-.23,86.72,1.37,130.15,3.59,49.44,2.54,98.92,5.3,148.23,9.73,8.7.79,17.4,1.63,26.08,2.68l2.78.35c1.77.22,1.45.2.47.06,1.48.21,3,.41,4.44.65,2.28.36,4.57.73,6.82,1.27.76.18,1.52.46,2.29.62,2.23.45-2.08-1.19-.54-.24a8.72,8.72,0,0,1-2.06-12.25c.24-.32,2.84-2.43,2-2-1.07.63,2.64-.56,1.31-.56-2,0-4.69,1.35-6.61,1.83-2.87.71-5.77,1.34-8.67,1.94-7,1.43-14.1,2.63-21.19,3.74-33.76,5.29-67.79,8.72-101.69,13-18.59,2.32-37.14,5-55.7,7.55-22.34,3.12-44.7,6.71-66.4,13a246.74,246.74,0,0,0-32,11.81l13.23,10.16a9.56,9.56,0,0,1-5.9,6.07c.16-.05.32-.05.47-.1,1.57-.44-3.1.25-.57.09,1.71-.1,3.43-.26,5.14-.35,5.83-.3,11.67-.45,17.51-.58,18.26-.43,36.54-.59,54.81-.72q63.54-.46,127.07-.19c12.51,0,25,0,37.53.27,11.59.27,11.58-17.73,0-18-31.14-.72-62.34-.37-93.49-.34-42,0-84,0-125.92,1-6.4.15-12.82.29-19.21.68-5.94.36-12.63.51-14.8,7.41-2.59,8.2,6.58,13.13,13.22,10.16,41.23-18.43,87.81-22.16,132.05-28.23,33.53-4.6,69.18-8.13,103.43-12.92,14.92-2.09,29.95-4.22,44.62-7.74,7.39-1.77,20.94-5.82,14.61-16.6-2.59-4.42-8-5.58-12.66-6.46-7-1.33-14.13-2.13-21.21-2.93-47.57-5.35-95.55-7.8-143.33-10.45-39.37-2.18-78.93-4.91-118.37-5.06-48.53-.19-97.18.08-145.62,3.23-45.32,2.95-91.51,6.39-136,15.73-10.86,2.28-21.61,5-32.19,8.36-11,3.47-6.31,20.85,4.78,17.36Z" class="cls-9"></path></svg>